<svg id="svg" version="1.1" xmlns="http://www.w3.org/2000/svg" xmlns:xlink="http://www.w3.org/1999/xlink" width="400" height="266.6666666666667" viewBox="0, 0, 400,266.6666666666667"><g id="svgg"><path id="path0" d="M251.200 63.189 C 223.672 69.079,223.215 110.896,250.603 117.795 C 255.575 119.047,263.366 118.257,268.165 116.013 C 289.162 106.196,288.630 73.021,267.339 64.517 C 262.698 62.663,256.170 62.126,251.200 63.189 M47.848 63.280 C 46.862 63.831,47.611 67.903,48.745 68.158 C 51.059 68.678,51.672 68.914,52.333 69.540 L 53.067 70.233 53.065 88.517 C 53.062 111.912,53.012 112.234,49.314 112.730 C 47.997 112.906,47.467 113.828,47.467 115.938 C 47.467 117.938,47.146 117.867,56.154 117.867 C 65.451 117.867,64.974 118.002,64.707 115.449 C 64.479 113.266,64.237 112.902,62.900 112.723 C 60.932 112.459,60.015 111.445,59.431 108.889 C 59.058 107.251,58.779 77.877,59.141 78.267 C 59.277 78.413,66.204 87.443,74.533 98.333 L 89.678 118.133 91.039 118.118 C 91.787 118.110,92.820 117.960,93.333 117.785 L 94.267 117.467 94.422 95.200 C 94.595 70.491,94.596 70.482,96.251 69.003 C 96.704 68.598,97.343 68.265,97.671 68.263 C 99.058 68.253,100.148 64.954,99.239 63.521 C 99.010 63.159,83.765 62.984,83.195 63.336 C 82.732 63.622,83.036 67.392,83.564 67.920 C 83.644 67.999,84.284 68.169,84.988 68.297 C 88.289 68.896,88.356 69.247,88.467 86.647 L 88.559 101.161 85.139 96.647 C 83.258 94.165,76.935 85.773,71.088 78.000 C 65.242 70.227,60.312 63.708,60.134 63.514 C 59.764 63.112,48.531 62.898,47.848 63.280 M261.942 63.864 C 276.468 66.397,285.377 80.795,282.143 96.513 C 279.050 111.548,264.954 120.562,250.320 116.863 C 226.357 110.807,224.265 74.445,247.347 65.204 C 251.467 63.555,257.167 63.031,261.942 63.864 M74.383 83.784 L 89.200 103.435 89.276 88.718 C 89.354 73.375,89.255 71.537,88.236 69.541 C 87.666 68.422,86.092 67.484,84.770 67.473 C 84.144 67.467,84.055 67.340,83.903 66.229 C 83.564 63.758,82.769 64.000,91.237 64.000 L 98.740 64.000 98.563 65.503 C 98.353 67.290,98.264 67.467,97.571 67.467 C 96.774 67.467,95.602 68.154,95.105 68.913 C 93.777 70.939,93.766 71.134,93.665 94.849 L 93.569 117.032 92.122 117.213 C 91.326 117.312,90.512 117.331,90.311 117.254 C 90.111 117.177,82.893 107.894,74.271 96.624 C 65.648 85.354,58.482 76.013,58.345 75.867 C 57.979 75.473,58.250 107.520,58.626 109.149 C 59.280 111.974,60.077 112.898,62.360 113.477 C 63.681 113.812,63.893 114.169,63.968 116.178 L 64.000 117.024 56.133 117.024 L 48.267 117.024 48.267 116.145 C 48.267 114.305,48.548 113.600,49.282 113.600 C 50.348 113.600,52.097 112.626,52.619 111.742 C 53.781 109.776,53.857 108.352,53.862 88.613 L 53.867 69.892 52.922 68.975 C 52.039 68.117,50.398 67.467,49.117 67.467 C 48.591 67.467,48.276 66.450,48.270 64.728 L 48.267 63.989 53.916 64.061 L 59.565 64.133 74.383 83.784 M251.537 67.862 C 234.492 72.644,235.843 107.419,253.282 112.806 C 266.785 116.977,277.114 103.824,274.020 86.400 C 271.721 73.456,261.534 65.057,251.537 67.862 M164.800 68.675 C 163.230 69.332,159.732 70.133,158.430 70.133 C 157.449 70.133,156.901 70.658,156.545 71.942 C 155.982 73.969,156.425 74.667,158.273 74.667 C 161.502 74.667,161.381 73.878,161.282 94.181 C 161.187 113.752,161.373 112.415,158.682 112.940 C 157.852 113.102,157.128 113.422,156.907 113.725 C 156.464 114.330,156.398 117.218,156.821 117.480 C 157.429 117.856,173.653 117.678,173.897 117.293 C 174.609 116.170,173.897 113.401,172.840 113.186 C 169.270 112.460,169.333 112.620,169.333 104.324 C 169.333 94.522,170.857 91.281,175.600 90.996 C 180.236 90.716,180.933 92.242,180.933 102.667 C 180.933 112.299,180.699 113.067,177.757 113.067 C 176.524 113.067,175.512 116.836,176.570 117.489 C 176.930 117.712,192.782 117.707,193.004 117.484 C 193.295 117.194,193.036 114.266,192.670 113.704 C 192.446 113.361,191.897 113.076,191.263 112.974 C 189.187 112.642,189.223 112.804,189.020 102.706 C 188.832 93.311,188.711 92.298,187.496 89.922 C 184.697 84.446,176.311 83.349,170.542 87.703 L 169.200 88.716 169.200 79.491 C 169.200 67.553,168.949 66.937,164.800 68.675 M343.733 68.675 C 342.164 69.332,338.665 70.133,337.364 70.133 C 336.382 70.133,335.835 70.658,335.478 71.942 C 334.915 73.969,335.358 74.667,337.207 74.667 C 340.396 74.667,340.268 73.887,340.260 93.306 C 340.253 112.934,340.288 112.683,337.487 112.999 C 335.893 113.178,335.467 113.765,335.467 115.777 C 335.467 117.790,334.980 117.680,343.880 117.671 C 352.790 117.661,352.267 117.780,352.267 115.777 C 352.267 113.880,351.822 113.192,350.455 112.973 C 348.250 112.621,348.417 114.294,348.267 90.972 C 348.144 71.860,348.097 70.201,347.664 69.408 C 346.815 67.855,346.038 67.710,343.733 68.675 M258.720 68.559 C 270.731 71.046,277.644 90.369,271.351 103.867 C 264.992 117.506,247.355 114.983,242.124 99.685 C 236.073 81.991,244.775 65.672,258.720 68.559 M167.714 69.503 C 168.252 70.186,168.267 70.488,168.267 80.604 L 168.267 91.003 169.797 89.484 C 175.398 83.928,184.171 84.771,187.156 91.153 L 187.863 92.667 188.021 101.733 C 188.207 112.442,188.415 113.310,190.909 113.768 C 192.094 113.985,192.257 114.223,192.262 115.733 L 192.266 116.933 184.666 116.933 L 177.066 116.933 177.071 115.733 C 177.076 114.206,177.238 113.985,178.495 113.787 C 181.567 113.302,181.733 112.745,181.733 102.933 C 181.733 91.874,180.954 90.158,175.924 90.139 C 170.472 90.118,168.410 94.029,168.405 104.400 C 168.401 112.538,168.734 113.448,171.844 113.798 C 173.085 113.938,173.333 114.344,173.333 116.233 L 173.333 116.933 165.333 116.933 L 157.333 116.933 157.337 115.733 C 157.343 114.183,157.499 113.984,158.885 113.768 C 162.138 113.260,161.986 114.191,162.082 94.133 C 162.181 73.415,162.331 74.324,158.748 73.838 C 156.922 73.590,156.931 73.601,157.370 72.226 L 157.733 71.089 159.894 70.783 C 162.073 70.473,165.394 69.564,166.133 69.073 C 166.767 68.653,167.122 68.750,167.714 69.503 M346.559 69.361 C 347.046 69.900,347.072 70.738,347.200 90.361 C 347.324 109.403,347.367 110.876,347.821 111.913 C 348.316 113.044,349.491 113.867,350.612 113.867 C 351.254 113.867,351.467 114.352,351.467 115.822 L 351.467 116.933 343.867 116.933 L 336.267 116.933 336.271 115.733 C 336.276 114.181,336.432 113.984,337.833 113.765 C 341.099 113.255,340.919 114.365,341.016 94.133 C 341.115 73.415,341.264 74.324,337.682 73.838 C 335.855 73.590,335.864 73.601,336.303 72.226 L 336.667 71.089 338.827 70.783 C 341.006 70.473,344.328 69.564,345.067 69.073 C 345.665 68.677,345.997 68.741,346.559 69.361 M111.600 69.572 C 108.894 70.825,107.838 73.526,109.035 76.133 C 110.490 79.303,114.494 79.884,116.985 77.288 C 120.595 73.524,116.314 67.390,111.600 69.572 M114.682 70.133 C 117.307 70.862,118.310 74.195,116.597 76.495 C 114.868 78.815,111.326 78.540,109.884 75.974 C 108.125 72.845,111.157 69.154,114.682 70.133 M203.008 75.349 C 202.536 75.722,201.366 76.382,200.408 76.816 L 198.667 77.605 198.667 81.869 L 198.667 86.133 196.653 86.133 L 194.639 86.133 194.253 87.058 C 193.272 89.406,193.874 90.932,195.782 90.935 C 196.269 90.936,197.117 91.061,197.667 91.214 L 198.667 91.492 198.667 101.564 C 198.667 114.131,198.997 115.501,202.457 117.282 C 207.482 119.868,216.774 116.936,215.353 113.214 C 214.613 111.278,214.095 111.073,212.327 112.016 C 210.356 113.068,208.524 113.105,207.605 112.114 C 206.565 110.991,206.400 109.358,206.400 100.154 L 206.400 91.533 207.267 91.360 C 207.743 91.264,209.213 91.121,210.533 91.042 C 214.414 90.811,214.810 90.524,214.969 87.827 C 215.069 86.134,215.067 86.133,210.518 86.133 L 206.400 86.133 206.400 81.506 C 206.400 74.882,205.553 73.344,203.008 75.349 M205.185 76.059 C 205.526 76.546,205.600 77.572,205.600 81.793 L 205.600 86.933 209.901 86.933 L 214.203 86.933 214.062 88.184 C 213.887 89.730,213.385 90.133,211.634 90.133 C 210.902 90.133,209.245 90.269,207.951 90.435 L 205.600 90.736 205.600 99.888 C 205.600 110.152,205.727 111.264,207.055 112.672 C 208.206 113.893,210.371 113.999,212.374 112.933 C 213.982 112.078,214.001 112.081,214.481 113.267 C 214.995 114.535,214.368 115.316,211.974 116.390 C 207.131 118.564,202.101 117.494,200.344 113.915 L 199.600 112.400 199.467 101.608 L 199.333 90.817 198.267 90.495 C 197.680 90.319,196.820 90.165,196.355 90.154 C 194.664 90.113,194.254 89.386,194.927 87.617 C 195.176 86.962,195.275 86.933,197.327 86.933 L 199.467 86.933 199.467 82.463 L 199.467 77.992 200.752 77.535 C 201.459 77.284,202.509 76.724,203.085 76.291 C 204.363 75.331,204.652 75.299,205.185 76.059 M114.575 84.966 C 113.628 85.479,109.445 86.550,107.390 86.805 C 105.619 87.026,105.067 87.679,105.067 89.554 C 105.067 90.852,105.353 91.085,107.200 91.289 C 108.333 91.414,108.806 91.611,109.279 92.155 L 109.892 92.859 109.813 102.096 C 109.718 113.061,109.809 112.769,106.407 113.130 C 105.537 113.222,105.076 114.186,105.071 115.918 C 105.065 117.762,104.590 117.666,113.658 117.666 C 122.993 117.666,122.492 117.846,121.885 114.701 C 121.631 113.385,121.417 113.191,119.968 112.959 C 117.971 112.640,118.017 112.948,117.867 99.079 C 117.723 85.822,117.724 85.837,116.269 84.977 C 115.381 84.453,115.520 84.454,114.575 84.966 M135.088 84.816 C 131.943 85.342,129.014 87.014,127.301 89.260 C 124.137 93.408,124.405 100.915,127.834 104.236 L 128.767 105.139 127.996 106.103 C 125.288 109.490,124.938 114.812,127.295 116.769 C 127.641 117.056,127.550 117.234,126.628 118.067 C 121.724 122.497,123.621 130.874,130.070 133.269 C 140.067 136.982,153.271 129.865,153.815 120.472 C 154.204 113.750,151.238 111.894,139.467 111.495 C 132.751 111.267,132.267 111.150,132.267 109.753 C 132.267 108.153,132.980 107.613,134.629 107.967 C 145.477 110.293,153.914 101.587,150.059 92.044 C 149.694 91.140,149.429 90.400,149.469 90.400 C 149.510 90.400,150.461 90.590,151.584 90.822 C 154.326 91.389,154.502 91.243,154.344 88.542 C 154.146 85.161,154.471 85.333,148.324 85.333 C 144.695 85.333,142.488 85.211,141.200 84.938 C 139.179 84.510,137.156 84.469,135.088 84.816 M291.162 85.266 C 283.914 85.354,284.100 85.292,284.380 87.534 C 284.602 89.312,284.755 89.544,286.165 90.254 C 287.800 91.077,289.602 95.175,295.480 111.440 C 298.046 118.541,298.012 118.487,299.694 118.279 C 302.127 117.979,301.860 118.420,306.277 107.376 L 310.312 97.285 313.537 104.976 C 315.310 109.206,317.207 113.807,317.752 115.200 C 319.087 118.616,319.364 118.798,322.042 118.002 L 323.381 117.605 326.395 108.869 C 332.429 91.381,332.700 90.727,334.168 90.119 C 335.453 89.587,336.411 86.050,335.434 85.447 C 334.811 85.062,322.628 85.233,322.360 85.631 C 321.660 86.667,322.680 89.578,323.867 89.933 C 327.066 90.890,327.121 92.231,324.308 100.790 L 322.514 106.247 320.687 101.724 C 314.107 85.435,313.917 85.064,312.149 85.071 C 309.771 85.079,310.264 84.202,305.059 97.677 L 301.785 106.153 299.805 100.743 C 295.661 89.423,295.857 90.592,298.016 90.057 C 300.756 89.377,300.939 84.905,298.218 85.128 C 297.805 85.162,294.630 85.224,291.162 85.266 M116.555 86.293 C 116.865 86.666,116.957 88.986,117.067 99.174 C 117.160 107.874,117.293 111.761,117.509 112.136 C 118.034 113.050,118.784 113.577,119.878 113.805 C 120.894 114.016,120.937 114.068,121.118 115.336 C 121.358 117.012,122.229 116.835,113.490 116.888 L 105.867 116.933 105.870 116.000 C 105.877 114.222,106.069 113.943,107.386 113.795 C 110.471 113.447,110.621 112.899,110.646 101.925 C 110.671 90.949,110.488 90.400,106.795 90.400 C 105.922 90.400,105.867 90.347,105.867 89.518 C 105.867 88.135,106.300 87.840,109.052 87.351 C 111.605 86.898,114.601 86.017,115.041 85.591 C 115.323 85.319,116.011 85.638,116.555 86.293 M141.627 85.874 C 142.123 86.017,144.945 86.133,147.897 86.133 L 153.264 86.133 153.429 87.133 C 153.766 89.173,153.647 90.450,153.133 90.293 C 152.614 90.134,148.070 89.333,147.686 89.333 C 147.551 89.333,147.819 89.883,148.282 90.555 C 154.346 99.369,145.739 109.718,134.536 107.083 C 132.753 106.663,132.543 106.746,131.891 108.119 C 130.396 111.271,131.925 112.245,138.400 112.265 C 149.905 112.300,153.397 114.260,153.003 120.459 C 152.097 134.734,124.787 138.697,124.801 124.552 C 124.804 121.716,125.979 119.349,128.071 117.964 L 129.283 117.160 128.377 116.437 C 125.617 114.235,125.864 110.149,128.994 106.209 L 129.888 105.084 128.813 104.114 C 124.367 100.097,125.038 91.537,130.098 87.735 C 132.875 85.648,137.971 84.826,141.627 85.874 M299.196 87.133 C 299.191 88.758,299.029 88.983,297.641 89.294 C 295.058 89.875,295.021 90.326,297.111 95.783 C 297.859 97.736,299.211 101.398,300.115 103.922 L 301.758 108.512 305.988 97.522 C 310.836 84.926,310.204 86.163,311.895 85.963 L 313.216 85.806 316.253 93.103 C 317.923 97.116,320.002 102.200,320.874 104.400 C 321.746 106.600,322.496 108.439,322.540 108.487 C 322.651 108.609,326.267 97.580,326.808 95.467 C 327.663 92.130,327.030 90.207,324.819 89.422 C 323.514 88.958,322.934 88.013,322.933 86.349 C 322.933 86.072,324.176 86.000,328.961 86.000 L 334.988 86.000 334.861 87.323 C 334.766 88.317,334.582 88.748,334.125 89.056 C 331.854 90.585,331.979 90.305,326.299 106.648 C 323.596 114.424,322.616 116.940,322.235 117.080 C 321.959 117.182,321.245 117.347,320.648 117.448 L 319.563 117.631 318.807 115.682 C 317.932 113.428,311.810 98.686,310.874 96.581 L 310.243 95.162 305.911 106.094 L 301.580 117.027 300.210 117.320 C 298.483 117.691,298.729 118.037,296.711 112.400 C 290.559 95.217,288.413 90.377,286.560 89.497 C 285.433 88.962,285.448 88.986,285.218 87.405 L 285.035 86.143 291.518 86.066 C 295.083 86.024,298.270 85.962,298.600 85.928 C 299.147 85.872,299.200 85.978,299.196 87.133 M136.133 88.786 C 131.130 89.970,130.827 100.963,135.729 103.464 C 140.480 105.888,144.095 102.593,143.661 96.234 C 143.316 91.188,139.970 87.877,136.133 88.786 M139.249 89.835 C 143.745 91.549,144.193 101.772,139.836 103.210 C 136.432 104.333,133.364 101.347,133.119 96.671 C 132.837 91.305,135.453 88.388,139.249 89.835 M131.767 119.056 C 129.691 122.330,130.721 127.327,133.782 128.834 C 140.352 132.069,149.794 125.928,146.846 120.338 C 145.962 118.662,143.899 118.145,137.285 117.938 L 132.569 117.791 131.767 119.056 M140.862 118.939 C 145.425 119.371,146.400 119.967,146.400 122.322 C 146.400 126.814,141.339 129.726,135.603 128.534 C 132.674 127.926,131.091 125.302,131.601 121.902 C 132.105 118.539,133.144 118.207,140.862 118.939 M246.856 134.133 C 246.734 134.599,246.848 134.667,247.746 134.667 C 250.662 134.667,250.738 135.136,248.909 141.862 C 247.256 147.944,247.262 147.935,245.992 146.467 C 242.367 142.277,232.418 151.239,231.558 159.469 C 230.765 167.050,237.728 169.127,242.497 162.733 C 243.908 160.842,244.245 160.899,244.186 163.016 C 244.060 167.558,248.239 167.939,251.064 163.643 C 252.477 161.494,253.204 159.467,252.560 159.467 C 252.205 159.467,251.887 159.897,251.452 160.971 C 249.826 164.975,246.933 165.794,246.933 162.250 C 246.933 160.409,252.680 137.535,254.020 134.045 C 254.174 133.643,253.842 133.600,250.593 133.600 C 247.220 133.600,246.987 133.633,246.856 134.133 M264.388 134.255 C 263.019 135.623,263.900 138.133,265.749 138.133 C 266.768 138.133,268.000 136.893,268.000 135.867 C 268.000 134.025,265.661 132.981,264.388 134.255 M182.225 136.011 C 178.706 136.707,175.742 139.659,175.313 142.895 C 174.923 145.837,176.446 148.295,180.573 151.383 C 187.338 156.445,188.461 161.389,183.464 164.109 C 178.549 166.784,173.299 163.889,172.616 158.128 C 172.220 154.778,171.473 157.022,170.286 165.133 C 170.017 166.969,170.760 166.899,171.205 165.046 C 171.619 163.319,171.984 163.202,173.391 164.342 C 179.536 169.319,188.816 165.495,189.278 157.796 C 189.501 154.086,188.275 152.136,183.416 148.468 C 177.661 144.124,176.809 139.992,181.226 137.854 C 185.714 135.681,189.867 138.341,189.867 143.389 C 189.867 144.863,190.627 143.937,191.061 141.933 C 191.308 140.797,191.664 139.177,191.853 138.333 C 192.193 136.810,191.769 135.961,191.341 137.309 C 190.989 138.420,190.555 138.427,189.119 137.348 C 187.180 135.891,184.984 135.465,182.225 136.011 M199.809 143.533 L 198.785 146.800 196.992 146.879 C 196.007 146.922,195.200 147.062,195.200 147.190 C 195.200 147.318,195.127 147.613,195.038 147.845 C 194.901 148.201,195.129 148.267,196.505 148.267 C 198.527 148.267,198.517 147.889,196.662 154.049 C 193.887 163.268,193.608 165.147,194.867 166.140 C 196.683 167.573,201.365 164.932,203.786 161.108 C 204.809 159.493,203.957 159.703,202.343 161.464 C 200.199 163.804,198.563 164.658,197.761 163.857 C 197.068 163.164,197.218 162.349,199.364 155.133 L 201.407 148.267 203.637 148.267 C 204.863 148.267,205.867 148.156,205.867 148.022 C 205.867 147.887,205.940 147.587,206.029 147.355 C 206.167 146.993,205.903 146.933,204.178 146.933 C 201.677 146.933,201.748 147.109,202.828 143.600 C 203.325 141.987,203.732 140.577,203.732 140.467 C 203.733 140.357,203.081 140.267,202.283 140.267 L 200.833 140.267 199.809 143.533 M214.267 145.620 C 213.003 145.996,210.913 147.736,209.530 149.562 C 207.834 151.802,208.217 152.229,210.063 150.157 C 213.988 145.751,214.508 147.158,211.644 154.431 C 210.685 156.867,209.701 159.627,209.457 160.564 C 207.533 167.966,213.816 168.876,218.613 161.889 C 219.980 159.898,220.121 159.999,220.128 162.971 C 220.136 166.712,221.350 167.594,224.121 165.872 C 226.023 164.690,229.187 160.404,228.479 159.967 C 228.271 159.838,227.906 160.211,227.438 161.030 C 226.515 162.647,224.732 164.267,223.875 164.267 C 222.183 164.267,222.410 162.885,225.834 152.333 L 227.932 145.867 226.389 145.867 L 224.847 145.867 224.119 147.800 C 220.793 156.631,219.707 158.810,217.125 161.834 C 214.325 165.113,212.259 165.077,212.612 161.756 C 212.692 161.007,213.678 158.011,214.815 155.067 C 217.985 146.857,217.851 144.552,214.267 145.620 M261.733 145.833 C 259.856 146.692,256.006 150.563,256.398 151.197 C 256.491 151.347,257.252 150.749,258.090 149.868 C 259.220 148.681,259.801 148.267,260.335 148.267 C 261.830 148.267,261.662 149.291,258.824 157.461 C 256.240 164.902,256.400 167.055,259.499 166.559 C 262.087 166.145,267.177 161.462,266.146 160.443 C 265.908 160.208,265.763 160.258,265.541 160.652 C 263.965 163.447,260.815 165.083,260.377 163.335 C 260.184 162.567,260.095 162.857,262.832 155.274 C 265.332 148.345,265.639 146.564,264.474 145.748 C 263.707 145.211,263.047 145.232,261.733 145.833 M278.725 145.631 C 276.155 146.239,272.683 149.438,271.112 152.645 C 265.958 163.172,274.401 171.283,282.248 163.343 C 289.971 155.529,287.586 143.537,278.725 145.631 M281.983 146.927 C 286.260 148.553,281.713 164.271,276.693 165.213 C 272.428 166.013,271.844 159.111,275.536 151.539 C 277.360 147.798,279.759 146.081,281.983 146.927 M245.479 147.588 C 248.434 150.543,241.946 164.533,237.619 164.533 C 234.113 164.533,233.758 159.725,236.804 153.490 C 239.259 148.464,243.482 145.591,245.479 147.588 " stroke="none" fill="#080808" fill-rule="evenodd"></path><path id="path1" d="M254.800 63.632 C 236.635 65.350,226.146 84.434,233.597 102.208 C 242.097 122.484,271.835 122.480,280.276 102.202 C 288.498 82.452,274.816 61.738,254.800 63.632 M48.534 65.381 C 48.533 66.782,49.015 67.467,50.002 67.467 C 51.039 67.467,52.075 67.975,53.133 69.003 L 54.133 69.975 54.133 87.901 C 54.133 106.698,54.016 109.089,52.985 111.200 C 52.301 112.603,50.945 113.600,49.722 113.600 C 48.715 113.600,48.533 113.919,48.533 115.688 L 48.533 116.933 56.133 116.933 L 63.733 116.933 63.733 115.718 C 63.733 114.218,63.351 113.707,62.088 113.519 C 58.347 112.963,58.098 111.524,58.194 91.020 L 58.267 75.507 74.265 96.401 C 88.772 115.347,90.325 117.285,90.931 117.192 C 91.299 117.135,92.050 117.019,92.600 116.932 L 93.600 116.776 93.605 95.121 C 93.610 68.832,93.629 68.675,96.803 67.547 C 98.178 67.059,98.390 66.730,98.396 65.067 L 98.400 64.133 91.200 64.133 L 84.000 64.133 84.004 65.333 C 84.009 66.882,84.158 67.081,85.600 67.463 C 89.383 68.466,89.647 69.953,89.543 89.681 L 89.467 104.028 74.425 84.081 L 59.384 64.133 53.959 64.133 L 48.534 64.133 48.534 65.381 M260.271 67.971 C 278.084 73.563,279.838 108.630,262.533 113.194 C 249.957 116.511,239.410 105.292,239.348 88.533 C 239.293 73.485,248.624 64.314,260.271 67.971 M165.623 69.483 C 164.449 69.992,161.064 70.836,159.250 71.071 C 158.074 71.223,157.790 71.367,157.583 71.911 C 157.064 73.277,157.224 73.514,158.776 73.674 C 162.422 74.051,162.267 73.171,162.267 93.467 C 162.267 113.700,162.307 113.460,158.850 113.979 C 157.791 114.137,157.644 114.246,157.498 114.978 C 157.128 116.828,156.502 116.690,165.212 116.684 L 173.091 116.678 173.012 115.472 C 172.934 114.279,172.921 114.264,171.706 113.964 C 168.441 113.158,168.399 113.034,168.404 104.133 C 168.409 93.505,170.299 89.990,176.000 90.005 C 181.066 90.018,182.000 92.052,182.000 103.067 C 182.000 112.651,181.741 113.436,178.385 114.002 C 177.545 114.145,177.368 114.295,177.230 114.985 C 176.857 116.851,176.253 116.712,184.667 116.688 C 193.042 116.664,192.466 116.796,192.105 114.991 C 191.969 114.310,191.767 114.138,190.828 113.901 C 188.257 113.254,188.004 112.274,187.999 102.933 C 187.995 93.025,187.565 90.805,185.197 88.471 C 180.982 84.316,172.143 85.581,168.820 90.814 L 168.133 91.895 168.220 81.763 C 168.333 68.621,168.272 68.333,165.623 69.483 M344.556 69.483 C 343.382 69.992,339.997 70.836,338.183 71.071 C 337.008 71.223,336.723 71.367,336.516 71.911 C 335.997 73.277,336.157 73.514,337.710 73.674 C 341.355 74.051,341.200 73.171,341.200 93.467 C 341.200 113.700,341.240 113.460,337.783 113.979 C 336.724 114.137,336.578 114.246,336.431 114.978 C 336.063 116.820,335.468 116.684,343.892 116.684 L 351.518 116.684 351.362 115.742 C 351.276 115.224,351.205 114.664,351.203 114.498 C 351.201 114.332,350.685 114.067,350.056 113.909 C 347.137 113.174,347.203 113.710,347.201 90.617 C 347.200 67.633,347.283 68.299,344.556 69.483 M111.600 70.629 C 108.936 72.275,108.879 76.128,111.498 77.483 C 114.105 78.831,117.335 76.873,117.332 73.947 C 117.330 71.117,113.964 69.169,111.600 70.629 M203.600 76.141 C 203.160 76.502,202.050 77.124,201.133 77.524 L 199.467 78.252 199.467 82.593 L 199.467 86.933 197.365 86.933 L 195.263 86.933 194.965 88.118 C 194.539 89.809,194.517 89.775,196.200 89.952 C 197.043 90.040,198.115 90.246,198.581 90.409 L 199.429 90.706 199.527 101.286 C 199.633 112.750,199.673 113.089,201.191 115.079 C 203.309 117.856,209.491 118.045,213.404 115.453 C 214.774 114.545,214.879 114.250,214.257 113.048 L 213.847 112.256 212.670 112.946 C 210.193 114.397,207.366 113.970,206.356 111.992 C 205.495 110.306,205.333 108.326,205.333 99.458 L 205.333 90.721 207.019 90.428 C 207.946 90.266,209.804 90.056,211.147 89.961 C 213.790 89.773,213.675 89.855,214.015 87.933 L 214.193 86.933 209.763 86.933 L 205.333 86.933 205.333 81.619 C 205.333 77.143,205.267 76.239,204.914 75.886 C 204.410 75.382,204.564 75.352,203.600 76.141 M114.400 86.060 C 112.951 86.707,109.905 87.471,108.069 87.649 C 106.406 87.810,105.882 88.347,105.868 89.903 C 105.867 89.996,106.437 90.157,107.133 90.259 C 110.811 90.801,110.800 90.768,110.800 102.000 C 110.800 113.211,110.740 113.415,107.267 113.992 C 106.198 114.169,106.133 114.231,106.133 115.068 C 106.133 115.557,106.070 116.122,105.992 116.325 C 105.873 116.634,107.087 116.694,113.458 116.689 L 121.067 116.683 121.063 116.008 C 121.055 114.598,120.793 114.226,119.534 113.841 C 116.897 113.035,116.814 112.571,116.806 98.503 C 116.799 84.967,116.803 84.987,114.400 86.060 M134.800 85.868 C 126.331 87.674,122.975 97.683,128.781 103.821 L 130.124 105.242 129.350 105.984 C 126.186 109.016,125.780 115.077,128.650 116.446 C 129.828 117.007,129.828 117.089,128.649 117.724 C 122.843 120.851,124.060 130.458,130.510 132.417 C 141.622 135.793,154.337 127.710,152.797 118.250 C 152.098 113.952,149.732 112.899,139.987 112.546 C 131.086 112.224,129.532 111.220,132.130 107.471 L 132.816 106.482 134.208 106.864 C 137.742 107.832,142.844 107.138,145.470 105.331 C 150.451 101.904,151.564 94.110,147.668 89.934 C 146.841 89.049,147.096 89.016,150.289 89.596 C 151.890 89.887,153.279 90.127,153.375 90.129 C 153.540 90.133,153.462 88.899,153.178 87.021 L 153.051 86.176 146.859 86.020 C 143.453 85.935,139.587 85.814,138.267 85.753 C 136.947 85.691,135.387 85.743,134.800 85.868 M285.334 86.833 C 285.333 87.899,285.666 89.067,285.971 89.067 C 287.989 89.067,290.049 93.438,296.530 111.467 C 298.781 117.728,298.758 117.697,300.629 117.079 C 301.503 116.791,301.574 116.637,305.861 105.816 C 309.869 95.696,310.232 94.896,310.543 95.490 C 311.014 96.388,316.998 110.694,318.424 114.332 C 319.502 117.080,319.658 117.330,320.294 117.332 C 320.904 117.333,322.667 116.853,322.667 116.685 C 322.667 116.500,330.211 94.982,330.927 93.126 C 331.784 90.903,333.153 89.067,333.953 89.067 C 334.234 89.067,334.432 88.731,334.545 88.067 C 334.637 87.517,334.762 86.883,334.822 86.660 C 334.918 86.304,334.195 86.252,329.066 86.252 C 323.261 86.252,323.200 86.258,323.200 86.820 C 323.200 88.131,323.739 89.008,324.651 89.179 C 326.680 89.560,327.708 91.633,327.210 94.340 C 326.768 96.745,322.627 108.932,322.397 108.505 C 322.287 108.300,321.140 105.493,319.848 102.267 C 318.556 99.040,316.528 94.120,315.342 91.333 L 313.187 86.267 311.943 86.186 C 310.416 86.087,311.079 84.784,306.136 97.600 C 303.902 103.393,301.987 108.293,301.881 108.488 C 301.764 108.704,301.292 107.710,300.679 105.955 C 300.124 104.366,298.767 100.667,297.664 97.733 C 294.864 90.289,294.866 89.610,297.690 89.156 C 298.796 88.978,298.829 88.932,299.013 87.312 L 299.137 86.224 292.235 86.246 C 285.383 86.267,285.334 86.271,285.334 86.833 M140.572 89.479 C 144.808 92.467,145.018 101.910,140.893 103.868 C 136.438 105.982,132.132 102.126,132.136 96.028 C 132.141 89.723,136.320 86.479,140.572 89.479 M142.931 118.167 C 146.942 118.795,148.534 121.491,146.951 124.976 C 144.425 130.540,133.867 131.651,131.359 126.618 C 130.086 124.063,130.478 120.128,132.183 118.348 L 132.872 117.629 137.036 117.762 C 139.326 117.836,141.979 118.018,142.931 118.167 M246.586 133.533 C 245.884 134.784,246.107 135.200,247.479 135.200 C 249.016 135.200,249.867 135.551,249.867 136.184 C 249.867 136.583,247.222 146.436,247.067 146.612 C 247.029 146.655,246.620 146.312,246.158 145.850 C 241.839 141.531,230.933 152.141,230.933 160.661 C 230.933 167.895,238.500 169.221,243.139 162.800 L 243.716 162.000 243.725 163.413 C 243.752 167.973,248.648 168.392,251.420 164.073 C 252.739 162.018,253.718 159.439,253.285 159.164 C 252.542 158.693,251.727 158.916,251.443 159.667 C 249.550 164.681,246.897 165.545,247.525 160.942 C 247.838 158.643,252.729 139.773,254.560 133.800 C 254.710 133.308,246.860 133.045,246.586 133.533 M264.244 133.675 C 263.030 134.607,262.828 136.719,263.855 137.745 C 265.569 139.460,268.767 138.016,268.452 135.669 C 268.185 133.679,265.745 132.523,264.244 133.675 M254.133 133.848 C 254.133 133.985,252.927 138.498,251.453 143.878 C 248.026 156.381,247.163 160.000,247.110 162.087 C 247.019 165.655,249.331 165.082,251.176 161.078 C 252.076 159.127,252.151 159.051,252.782 159.450 C 253.265 159.756,252.085 162.698,250.808 164.372 C 247.990 168.067,244.133 167.480,244.133 163.356 C 244.133 161.008,243.906 160.870,242.832 162.564 C 239.804 167.341,233.859 168.055,231.987 163.867 C 229.166 157.552,236.411 145.828,243.412 145.378 L 245.090 145.270 246.129 146.396 L 247.169 147.522 247.576 146.094 C 250.797 134.788,250.783 135.231,247.933 134.818 C 246.765 134.648,246.360 134.262,246.844 133.778 C 247.123 133.499,254.133 133.567,254.133 133.848 M267.474 134.274 C 268.880 135.772,267.861 138.133,265.808 138.133 C 263.891 138.133,262.944 136.451,263.861 134.678 C 264.537 133.371,266.427 133.160,267.474 134.274 M181.333 135.716 C 175.472 137.505,172.956 143.626,176.268 148.035 C 177.311 149.422,178.022 150.063,181.660 152.895 C 186.990 157.043,187.488 161.724,182.831 163.893 C 178.205 166.047,174.149 163.575,173.054 157.933 C 172.747 156.351,172.692 156.267,171.965 156.267 C 171.544 156.267,171.200 156.324,171.200 156.393 C 171.200 156.463,170.840 158.746,170.400 161.467 C 169.434 167.443,169.435 166.933,170.381 166.933 C 171.098 166.933,171.197 166.813,171.585 165.478 L 172.008 164.022 173.497 165.065 C 180.386 169.891,189.739 165.363,189.731 157.206 C 189.727 153.392,188.662 151.801,183.492 147.885 C 178.392 144.024,177.583 140.964,181.022 138.547 C 184.608 136.027,188.764 138.093,189.238 142.631 C 189.408 144.251,189.418 144.267,190.247 144.267 L 191.084 144.267 191.850 140.600 C 192.271 138.583,192.670 136.783,192.736 136.600 C 193.027 135.798,191.275 136.242,190.938 137.057 L 190.610 137.847 189.638 137.067 C 187.849 135.632,183.778 134.970,181.333 135.716 M186.994 136.012 C 187.540 136.164,188.531 136.703,189.196 137.211 C 190.666 138.333,190.739 138.338,191.118 137.333 C 191.381 136.638,192.263 136.178,192.269 136.733 C 192.285 138.441,190.735 144.000,190.243 144.000 C 189.745 144.000,189.655 143.801,189.505 142.364 C 189.058 138.086,185.323 136.000,181.459 137.870 C 177.042 140.009,177.820 143.985,183.503 148.304 C 189.141 152.589,190.492 155.455,189.061 160.090 C 187.076 166.516,178.172 168.830,172.979 164.271 C 171.818 163.252,171.895 163.220,171.399 164.933 C 171.101 165.964,170.878 166.287,170.415 166.355 C 169.944 166.425,169.847 166.340,169.957 165.955 C 170.034 165.686,170.424 163.457,170.823 161.000 C 171.609 156.165,172.250 155.003,172.662 157.667 C 173.111 160.576,174.412 162.995,176.068 164.002 C 179.330 165.986,184.256 164.728,185.744 161.531 C 187.338 158.107,186.024 155.791,179.725 150.920 C 176.568 148.478,175.383 146.711,175.243 144.231 C 174.922 138.537,180.936 134.330,186.994 136.012 M200.394 140.067 C 200.327 140.250,199.872 141.720,199.383 143.333 L 198.493 146.267 196.723 146.345 L 194.952 146.424 194.677 147.412 C 194.526 147.955,194.402 148.490,194.401 148.600 C 194.401 148.710,195.120 148.800,196.000 148.800 C 196.880 148.800,197.600 148.895,197.600 149.011 C 197.600 149.127,196.824 151.826,195.875 155.009 C 192.839 165.194,192.889 166.933,196.224 166.933 C 198.112 166.933,199.575 166.232,201.604 164.353 C 202.991 163.069,205.271 160.093,205.026 159.885 C 204.087 159.086,203.624 159.145,202.825 160.165 C 201.034 162.453,199.048 163.937,198.208 163.615 C 197.562 163.366,197.865 161.817,199.894 154.990 L 201.733 148.804 203.907 148.802 L 206.081 148.800 206.374 147.960 C 206.903 146.441,206.855 146.400,204.557 146.400 L 202.448 146.400 203.312 143.667 C 203.788 142.163,204.265 140.663,204.373 140.333 C 204.604 139.628,200.652 139.363,200.394 140.067 M203.998 140.200 C 203.998 140.310,203.580 141.720,203.070 143.333 C 202.559 144.947,202.140 146.357,202.138 146.467 C 202.135 146.577,203.093 146.667,204.267 146.667 C 205.440 146.667,206.400 146.719,206.400 146.783 C 206.400 147.946,205.861 148.267,203.906 148.267 C 202.651 148.267,201.832 148.388,201.657 148.600 C 201.358 148.964,198.372 158.684,197.778 161.230 C 196.909 164.956,198.847 165.000,202.196 161.331 C 203.662 159.725,203.966 159.504,204.247 159.843 C 205.422 161.259,199.095 166.647,196.241 166.661 C 193.255 166.675,193.278 164.761,196.389 154.421 C 198.331 147.967,198.332 148.267,196.384 148.267 C 195.179 148.267,194.934 148.188,194.937 147.800 C 194.945 146.920,195.345 146.695,197.054 146.614 L 198.760 146.533 199.650 143.600 C 200.139 141.987,200.594 140.517,200.661 140.333 C 200.794 139.971,204.001 139.843,203.998 140.200 M212.232 146.209 C 210.639 147.299,207.733 150.644,207.733 151.388 C 207.733 152.668,208.823 152.255,210.846 150.208 C 213.402 147.621,213.604 147.970,211.986 152.176 C 208.739 160.617,208.221 162.649,208.782 164.734 C 209.835 168.644,215.613 167.425,218.680 162.646 C 219.143 161.924,219.541 161.333,219.565 161.333 C 219.588 161.333,219.607 162.271,219.607 163.417 C 219.607 166.304,220.028 166.933,221.960 166.933 C 224.435 166.933,228.278 163.443,229.178 160.378 C 229.359 159.761,227.984 158.847,227.783 159.451 C 227.087 161.538,224.201 164.316,223.479 163.593 C 222.966 163.080,223.280 161.839,226.290 152.476 C 227.524 148.638,228.533 145.456,228.533 145.405 C 228.533 145.353,227.623 145.346,226.510 145.389 L 224.488 145.467 222.557 150.583 C 220.455 156.154,218.857 159.103,216.570 161.635 C 212.645 165.978,211.956 163.777,214.883 156.245 C 218.467 147.020,218.548 145.067,215.344 145.067 C 214.082 145.067,213.691 145.210,212.232 146.209 M260.652 145.892 C 258.240 147.403,255.510 150.500,255.838 151.354 C 256.191 152.275,256.807 152.021,258.494 150.257 C 261.347 147.275,261.491 148.263,259.173 154.933 C 255.592 165.240,255.578 166.933,259.077 166.933 C 262.832 166.933,269.622 159.845,265.966 159.742 C 265.800 159.737,265.157 160.392,264.536 161.197 C 263.286 162.816,261.815 163.873,261.160 163.621 C 260.490 163.365,260.823 162.080,263.239 155.600 C 265.568 149.350,266.063 146.670,265.101 145.508 C 264.453 144.726,262.205 144.920,260.652 145.892 M277.787 145.451 C 273.362 147.030,269.552 152.560,269.142 158.000 C 268.485 166.700,276.274 170.048,282.549 163.763 C 291.003 155.297,287.538 141.973,277.787 145.451 M216.918 145.926 C 217.769 147.141,217.419 148.742,214.859 155.333 C 212.216 162.137,212.067 164.966,214.404 163.998 C 217.040 162.907,220.231 157.817,223.073 150.172 L 224.724 145.733 226.362 145.654 C 228.341 145.558,228.338 145.037,226.400 151.046 C 222.503 163.128,222.290 164.267,223.926 164.267 C 224.477 164.267,226.633 162.153,227.378 160.882 C 228.079 159.685,228.190 159.608,228.722 159.946 C 229.468 160.421,226.369 164.591,224.291 165.908 C 221.318 167.794,219.924 166.793,219.964 162.800 C 219.994 159.877,220.004 159.892,219.096 161.441 C 217.201 164.675,214.520 166.667,212.064 166.667 C 208.452 166.667,208.019 163.553,210.670 156.647 C 212.877 150.898,213.621 148.707,213.487 148.356 C 213.197 147.600,212.329 148.073,210.514 149.978 C 208.346 152.252,207.262 152.475,208.663 150.358 C 211.270 146.418,215.625 144.080,216.918 145.926 M264.834 145.776 C 265.709 146.834,265.255 149.136,262.947 155.333 C 260.436 162.074,260.124 163.804,261.393 163.950 C 262.187 164.042,264.412 162.205,265.272 160.750 C 265.516 160.337,265.779 160.002,265.857 160.004 C 268.907 160.091,262.214 166.667,259.076 166.667 C 255.924 166.667,255.994 164.958,259.564 154.800 C 261.444 149.448,261.502 147.587,259.758 148.520 C 259.219 148.808,257.535 150.620,257.126 151.351 C 256.725 152.067,255.886 151.377,256.275 150.651 C 258.080 147.278,263.516 144.182,264.834 145.776 M283.333 145.839 C 288.634 148.293,288.213 157.559,282.538 163.318 C 277.785 168.142,271.814 167.712,269.999 162.415 C 267.060 153.841,276.167 142.521,283.333 145.839 M242.686 147.239 C 238.202 148.553,233.035 160.369,235.607 163.427 C 237.950 166.211,242.239 162.528,244.788 155.544 C 247.008 149.460,246.186 146.213,242.686 147.239 M279.067 147.423 C 274.825 150.010,271.532 161.690,274.272 164.430 C 277.191 167.349,282.345 160.879,283.454 152.903 C 284.123 148.091,282.105 145.570,279.067 147.423 M282.156 147.542 C 283.362 148.467,283.565 151.664,282.650 155.289 C 280.224 164.896,273.249 168.565,273.694 160.000 C 274.074 152.678,279.138 145.224,282.156 147.542 M245.223 148.025 C 246.362 149.283,245.283 154.462,242.983 158.777 C 238.603 166.995,233.004 164.940,236.141 156.267 C 238.396 150.031,243.141 145.725,245.223 148.025 " stroke="none" fill="#fbfbfb" fill-rule="evenodd"></path><path id="path2" d="M48.329 64.800 C 48.329 65.313,48.383 65.523,48.450 65.267 C 48.518 65.010,48.518 64.590,48.450 64.333 C 48.383 64.077,48.329 64.287,48.329 64.800 M50.067 64.188 C 50.397 64.252,50.937 64.252,51.267 64.188 C 51.597 64.125,51.327 64.073,50.667 64.073 C 50.007 64.073,49.737 64.125,50.067 64.188 M86.470 64.191 C 86.876 64.253,87.476 64.251,87.804 64.188 C 88.132 64.124,87.800 64.074,87.067 64.076 C 86.333 64.078,86.065 64.130,86.470 64.191 M94.600 64.188 C 94.930 64.252,95.470 64.252,95.800 64.188 C 96.130 64.125,95.860 64.073,95.200 64.073 C 94.540 64.073,94.270 64.125,94.600 64.188 M162.259 93.333 C 162.259 102.353,162.292 106.043,162.333 101.533 C 162.374 97.023,162.374 89.643,162.333 85.133 C 162.292 80.623,162.259 84.313,162.259 93.333 M341.192 93.333 C 341.192 102.353,341.226 106.043,341.267 101.533 C 341.308 97.023,341.308 89.643,341.267 85.133 C 341.226 80.623,341.192 84.313,341.192 93.333 M205.444 82.267 C 205.444 84.907,205.484 85.951,205.532 84.587 C 205.581 83.222,205.580 81.062,205.532 79.787 C 205.483 78.511,205.443 79.627,205.444 82.267 M289.412 86.332 C 290.556 86.382,292.356 86.382,293.412 86.331 C 294.469 86.281,293.533 86.240,291.333 86.240 C 289.133 86.240,288.269 86.282,289.412 86.332 M327.667 86.330 C 328.437 86.384,329.697 86.384,330.467 86.330 C 331.237 86.276,330.607 86.232,329.067 86.232 C 327.527 86.232,326.897 86.276,327.667 86.330 M153.395 88.800 C 153.395 89.313,153.450 89.523,153.517 89.267 C 153.584 89.010,153.584 88.590,153.517 88.333 C 153.450 88.077,153.395 88.287,153.395 88.800 M205.453 99.733 C 205.453 104.793,205.489 106.863,205.533 104.333 C 205.577 101.803,205.577 97.663,205.533 95.133 C 205.489 92.603,205.453 94.673,205.453 99.733 M143.810 97.200 C 143.812 97.933,143.863 98.202,143.925 97.796 C 143.986 97.391,143.984 96.791,143.921 96.463 C 143.858 96.135,143.808 96.467,143.810 97.200 M181.982 103.067 C 181.982 106.733,182.020 108.270,182.066 106.482 C 182.112 104.694,182.112 101.694,182.066 99.816 C 182.020 97.937,181.982 99.400,181.982 103.067 M268.519 109.533 L 267.600 110.533 268.600 109.614 C 269.531 108.759,269.723 108.533,269.519 108.533 C 269.474 108.533,269.024 108.983,268.519 109.533 M136.200 112.455 C 136.530 112.518,137.070 112.518,137.400 112.455 C 137.730 112.391,137.460 112.339,136.800 112.339 C 136.140 112.339,135.870 112.391,136.200 112.455 M48.334 116.133 C 48.337 116.720,48.391 116.929,48.455 116.597 C 48.519 116.265,48.517 115.785,48.450 115.530 C 48.383 115.275,48.331 115.547,48.334 116.133 M111.933 116.731 C 112.850 116.783,114.350 116.783,115.267 116.731 C 116.183 116.679,115.433 116.636,113.600 116.636 C 111.767 116.636,111.017 116.679,111.933 116.731 M163.533 116.731 C 164.523 116.782,166.143 116.782,167.133 116.731 C 168.123 116.680,167.313 116.638,165.333 116.638 C 163.353 116.638,162.543 116.680,163.533 116.731 M183.533 116.732 C 184.670 116.782,186.530 116.782,187.667 116.732 C 188.803 116.682,187.873 116.641,185.600 116.641 C 183.327 116.641,182.397 116.682,183.533 116.732 M342.211 116.731 C 343.207 116.783,344.767 116.782,345.678 116.730 C 346.588 116.679,345.773 116.636,343.867 116.637 C 341.960 116.637,341.215 116.680,342.211 116.731 M49.533 116.988 C 49.863 117.052,50.403 117.052,50.733 116.988 C 51.063 116.925,50.793 116.873,50.133 116.873 C 49.473 116.873,49.203 116.925,49.533 116.988 M61.267 116.988 C 61.597 117.052,62.137 117.052,62.467 116.988 C 62.797 116.925,62.527 116.873,61.867 116.873 C 61.207 116.873,60.937 116.925,61.267 116.988 M255.800 117.528 C 256.350 117.585,257.250 117.585,257.800 117.528 C 258.350 117.470,257.900 117.423,256.800 117.423 C 255.700 117.423,255.250 117.470,255.800 117.528 M133.933 117.784 C 134.190 117.851,134.610 117.851,134.867 117.784 C 135.123 117.717,134.913 117.662,134.400 117.662 C 133.887 117.662,133.677 117.717,133.933 117.784 M137.404 129.791 C 137.809 129.853,138.409 129.851,138.737 129.788 C 139.065 129.724,138.733 129.674,138.000 129.676 C 137.267 129.678,136.998 129.730,137.404 129.791 M183.936 137.255 C 184.268 137.319,184.748 137.317,185.003 137.250 C 185.258 137.183,184.987 137.131,184.400 137.134 C 183.813 137.137,183.605 137.191,183.936 137.255 M195.933 146.860 C 196.410 146.919,197.190 146.919,197.667 146.860 C 198.143 146.800,197.753 146.752,196.800 146.752 C 195.847 146.752,195.457 146.800,195.933 146.860 M202.933 146.830 C 204.528 147.031,206.400 147.051,206.400 146.867 C 206.400 146.757,205.470 146.685,204.333 146.707 C 203.197 146.729,202.567 146.784,202.933 146.830 M177.067 148.617 C 177.067 148.663,177.457 149.053,177.933 149.483 L 178.800 150.267 178.017 149.400 C 177.287 148.592,177.067 148.411,177.067 148.617 M185.867 150.217 C 185.867 150.263,186.257 150.653,186.733 151.083 L 187.600 151.867 186.817 151.000 C 186.087 150.192,185.867 150.011,185.867 150.217 M231.267 160.667 C 231.270 161.253,231.325 161.462,231.389 161.130 C 231.452 160.799,231.450 160.319,231.383 160.064 C 231.316 159.809,231.264 160.080,231.267 160.667 M234.729 161.067 C 234.729 161.580,234.783 161.790,234.850 161.533 C 234.918 161.277,234.918 160.857,234.850 160.600 C 234.783 160.343,234.729 160.553,234.729 161.067 M201.450 162.200 L 200.667 163.067 201.533 162.283 C 202.341 161.553,202.523 161.333,202.317 161.333 C 202.271 161.333,201.881 161.723,201.450 162.200 M263.583 162.733 L 262.800 163.600 263.667 162.817 C 264.143 162.386,264.533 161.996,264.533 161.950 C 264.533 161.744,264.313 161.925,263.583 162.733 M282.250 163.533 L 281.467 164.400 282.333 163.617 C 283.141 162.887,283.323 162.667,283.117 162.667 C 283.071 162.667,282.681 163.057,282.250 163.533 M241.450 164.067 L 240.667 164.933 241.533 164.150 C 242.010 163.719,242.400 163.329,242.400 163.283 C 242.400 163.077,242.180 163.259,241.450 164.067 " stroke="none" fill="#a6a6a6" fill-rule="evenodd"></path><path id="path3" d="M239.285 88.267 C 239.285 89.220,239.334 89.610,239.393 89.133 C 239.452 88.657,239.452 87.877,239.393 87.400 C 239.334 86.923,239.285 87.313,239.285 88.267 M116.922 98.800 C 116.922 104.667,116.957 107.029,117.000 104.049 C 117.043 101.069,117.043 96.269,117.000 93.382 C 116.957 90.495,116.921 92.933,116.922 98.800 M132.067 95.867 C 132.070 96.453,132.125 96.662,132.189 96.330 C 132.252 95.999,132.250 95.519,132.183 95.264 C 132.116 95.009,132.064 95.280,132.067 95.867 M138.605 112.460 C 139.084 112.519,139.804 112.518,140.205 112.457 C 140.605 112.396,140.213 112.348,139.333 112.349 C 138.453 112.351,138.125 112.401,138.605 112.460 M201.533 140.193 C 202.010 140.252,202.790 140.252,203.267 140.193 C 203.743 140.134,203.353 140.085,202.400 140.085 C 201.447 140.085,201.057 140.134,201.533 140.193 M210.783 149.400 L 210.000 150.267 210.867 149.483 C 211.343 149.053,211.733 148.663,211.733 148.617 C 211.733 148.411,211.513 148.592,210.783 149.400 " stroke="none" fill="#7c7c7c" fill-rule="evenodd"></path><path id="path4" d="M53.538 64.193 C 54.017 64.253,54.737 64.251,55.138 64.191 C 55.539 64.130,55.147 64.081,54.267 64.083 C 53.387 64.084,53.059 64.134,53.538 64.193 M90.327 64.192 C 90.801 64.251,91.641 64.252,92.194 64.195 C 92.747 64.137,92.360 64.089,91.333 64.088 C 90.307 64.086,89.854 64.134,90.327 64.192 M238.783 70.733 L 238.000 71.600 238.867 70.817 C 239.343 70.386,239.733 69.996,239.733 69.950 C 239.733 69.744,239.513 69.925,238.783 70.733 M274.400 69.950 C 274.400 69.996,274.790 70.386,275.267 70.817 L 276.133 71.600 275.350 70.733 C 274.620 69.925,274.400 69.744,274.400 69.950 M53.992 87.467 C 53.992 97.073,54.026 101.003,54.067 96.200 C 54.107 91.397,54.107 83.537,54.067 78.733 C 54.026 73.930,53.992 77.860,53.992 87.467 M245.183 71.533 L 244.400 72.400 245.267 71.617 C 245.743 71.186,246.133 70.796,246.133 70.750 C 246.133 70.544,245.913 70.725,245.183 71.533 M89.457 89.867 C 89.457 97.567,89.491 100.717,89.533 96.867 C 89.575 93.017,89.575 86.717,89.533 82.867 C 89.491 79.017,89.457 82.167,89.457 89.867 M137.404 85.525 C 137.809 85.586,138.409 85.584,138.737 85.521 C 139.065 85.458,138.733 85.408,138.000 85.410 C 137.267 85.412,136.998 85.463,137.404 85.525 M274.462 91.200 C 274.462 91.713,274.517 91.923,274.584 91.667 C 274.651 91.410,274.651 90.990,274.584 90.733 C 274.517 90.477,274.462 90.687,274.462 91.200 M274.462 93.600 C 274.462 94.113,274.517 94.323,274.584 94.067 C 274.651 93.810,274.651 93.390,274.584 93.133 C 274.517 92.877,274.462 93.087,274.462 93.600 M110.783 101.600 C 110.783 105.340,110.820 106.870,110.866 105.000 C 110.912 103.130,110.912 100.070,110.866 98.200 C 110.820 96.330,110.783 97.860,110.783 101.600 M238.800 110.400 C 239.373 110.987,239.902 111.467,239.975 111.467 C 240.048 111.467,239.640 110.987,239.067 110.400 C 238.494 109.813,237.965 109.333,237.892 109.333 C 237.818 109.333,238.227 109.813,238.800 110.400 M126.462 112.267 C 126.462 112.780,126.517 112.990,126.584 112.733 C 126.651 112.477,126.651 112.057,126.584 111.800 C 126.517 111.543,126.462 111.753,126.462 112.267 M141.267 112.455 C 141.597 112.518,142.137 112.518,142.467 112.455 C 142.797 112.391,142.527 112.339,141.867 112.339 C 141.207 112.339,140.937 112.391,141.267 112.455 M121.067 116.337 C 121.067 116.571,120.797 116.815,120.467 116.878 L 119.867 116.994 120.475 117.030 C 121.061 117.065,121.575 116.419,121.233 116.077 C 121.141 115.986,121.067 116.103,121.067 116.337 M53.137 116.991 C 53.542 117.053,54.142 117.051,54.470 116.988 C 54.798 116.924,54.467 116.874,53.733 116.876 C 53.000 116.878,52.732 116.930,53.137 116.991 M57.937 116.991 C 58.342 117.053,58.942 117.051,59.270 116.988 C 59.598 116.924,59.267 116.874,58.533 116.876 C 57.800 116.878,57.532 116.930,57.937 116.991 M206.603 117.522 C 206.935 117.586,207.415 117.583,207.670 117.517 C 207.925 117.450,207.653 117.398,207.067 117.401 C 206.480 117.404,206.271 117.458,206.603 117.522 M225.533 145.793 C 226.010 145.852,226.790 145.852,227.267 145.793 C 227.743 145.734,227.353 145.685,226.400 145.685 C 225.447 145.685,225.057 145.734,225.533 145.793 M258.250 148.333 L 257.467 149.200 258.333 148.417 C 258.810 147.986,259.200 147.596,259.200 147.550 C 259.200 147.344,258.980 147.525,258.250 148.333 M236.917 148.867 L 236.133 149.733 237.000 148.950 C 237.477 148.519,237.867 148.129,237.867 148.083 C 237.867 147.877,237.647 148.059,236.917 148.867 M186.517 163.800 L 185.733 164.667 186.600 163.883 C 187.077 163.453,187.467 163.063,187.467 163.017 C 187.467 162.811,187.247 162.992,186.517 163.800 M263.850 164.067 L 263.067 164.933 263.933 164.150 C 264.410 163.719,264.800 163.329,264.800 163.283 C 264.800 163.077,264.580 163.259,263.850 164.067 M256.862 164.267 C 256.862 164.780,256.917 164.990,256.984 164.733 C 257.051 164.477,257.051 164.057,256.984 163.800 C 256.917 163.543,256.862 163.753,256.862 164.267 " stroke="none" fill="#747474" fill-rule="evenodd"></path></g></svg>